<svg width="70" height="33" viewBox="0 0 70 33" fill="none" xmlns="http://www.w3.org/2000/svg">
<path d="M43.4805 13.5938H42.875C42.6181 13.5938 42.3717 13.6958 42.19 13.8775C42.0083 14.0592 41.9062 14.3056 41.9062 14.5625V15.5312C41.9062 15.7882 42.0083 16.0346 42.19 16.2163C42.3717 16.3979 42.6181 16.5 42.875 16.5H43.8401C43.8317 19.1128 43.5076 21.715 42.875 24.25H50.625C49.9924 21.715 49.6683 19.1128 49.6599 16.5H50.625C50.8819 16.5 51.1283 16.3979 51.31 16.2163C51.4917 16.0346 51.5938 15.7882 51.5938 15.5312V14.5625C51.5938 14.3056 51.4917 14.0592 51.31 13.8775C51.1283 13.6958 50.8819 13.5938 50.625 13.5938H50.0195L52.0715 8.12152C52.1265 7.97486 52.1451 7.81704 52.1258 7.6616C52.1064 7.50616 52.0497 7.35772 51.9604 7.22902C51.8711 7.10032 51.7519 6.99519 51.6131 6.92265C51.4743 6.85011 51.3199 6.81231 51.1633 6.8125H47.7188V4.875H49.1719C49.3003 4.875 49.4235 4.82397 49.5144 4.73313C49.6052 4.64229 49.6562 4.51909 49.6562 4.39062V3.42188C49.6562 3.29341 49.6052 3.17021 49.5144 3.07937C49.4235 2.98853 49.3003 2.9375 49.1719 2.9375H47.7188V1.48438C47.7188 1.35591 47.6677 1.23271 47.5769 1.14187C47.486 1.05103 47.3628 1 47.2344 1H46.2656C46.1372 1 46.014 1.05103 45.9231 1.14187C45.8323 1.23271 45.7812 1.35591 45.7812 1.48438V2.9375H44.3281C44.1997 2.9375 44.0765 2.98853 43.9856 3.07937C43.8948 3.17021 43.8438 3.29341 43.8438 3.42188V4.39062C43.8438 4.51909 43.8948 4.64229 43.9856 4.73313C44.0765 4.82397 44.1997 4.875 44.3281 4.875H45.7812V6.8125H42.3355C42.1789 6.81231 42.0245 6.85011 41.8857 6.92265C41.7469 6.99519 41.6277 7.10032 41.5384 7.22902C41.4491 7.35772 41.3924 7.50616 41.373 7.6616C41.3537 7.81704 41.3723 7.97486 41.4273 8.12152L43.4805 13.5938ZM53.9648 28.8261L52.5625 28.125V27.1562C52.5625 26.8993 52.4604 26.6529 52.2788 26.4712C52.0971 26.2896 51.8507 26.1875 51.5938 26.1875H41.9062C41.6493 26.1875 41.4029 26.2896 41.2212 26.4712C41.0396 26.6529 40.9375 26.8993 40.9375 27.1562V28.125L39.5358 28.8261C39.3749 28.9065 39.2395 29.0302 39.1448 29.1832C39.0502 29.3363 39 29.5126 39 29.6926V31.0312C39 31.2882 39.1021 31.5346 39.2837 31.7163C39.4654 31.8979 39.7118 32 39.9688 32H53.5312C53.7882 32 54.0346 31.8979 54.2163 31.7163C54.3979 31.5346 54.5 31.2882 54.5 31.0312V29.6926C54.5 29.5127 54.45 29.3364 54.3554 29.1833C54.2609 29.0303 54.1256 28.9066 53.9648 28.8261ZM59.5817 19.273L59.3825 24.25H67.055L66.8558 19.2724L68.3453 18.0137C68.5605 17.8316 68.7333 17.6047 68.8518 17.3489C68.9703 17.0932 69.0315 16.8146 69.0312 16.5327V12.9883C69.0312 12.8919 68.993 12.7995 68.9248 12.7314C68.8567 12.6633 68.7643 12.625 68.668 12.625H67.0707C66.9744 12.625 66.882 12.6633 66.8139 12.7314C66.7457 12.7995 66.7075 12.8919 66.7075 12.9883V14.5625H65.2113V12.9883C65.2113 12.8919 65.1731 12.7995 65.1049 12.7314C65.0368 12.6633 64.9444 12.625 64.8481 12.625H61.59C61.4937 12.625 61.4013 12.6633 61.3332 12.7314C61.265 12.7995 61.2268 12.8919 61.2268 12.9883V14.5625H59.7306V12.9883C59.7306 12.8919 59.6924 12.7995 59.6242 12.7314C59.5561 12.6633 59.4637 12.625 59.3674 12.625H57.7695C57.6732 12.625 57.5808 12.6633 57.5127 12.7314C57.4445 12.7995 57.4062 12.8919 57.4062 12.9883V16.5363C57.4067 16.8178 57.4685 17.0957 57.5873 17.3508C57.7061 17.606 57.879 17.8322 58.0941 18.0137L59.5817 19.273ZM62.25 19.4062C62.25 19.1493 62.3521 18.9029 62.5337 18.7212C62.7154 18.5396 62.9618 18.4375 63.2188 18.4375C63.4757 18.4375 63.7221 18.5396 63.9038 18.7212C64.0854 18.9029 64.1875 19.1493 64.1875 19.4062V21.3438H62.25V19.4062ZM69.4648 28.8261L68.0625 28.125V27.1562C68.0625 26.8993 67.9604 26.6529 67.7788 26.4712C67.5971 26.2896 67.3507 26.1875 67.0938 26.1875H59.3438C59.0868 26.1875 58.8404 26.2896 58.6587 26.4712C58.4771 26.6529 58.375 26.8993 58.375 27.1562V28.125L56.9733 28.8261C56.8124 28.9065 56.677 29.0302 56.5823 29.1832C56.4877 29.3363 56.4375 29.5126 56.4375 29.6926V31.0312C56.4375 31.2882 56.5396 31.5346 56.7212 31.7163C56.9029 31.8979 57.1493 32 57.4062 32H69.0312C69.2882 32 69.5346 31.8979 69.7163 31.7163C69.8979 31.5346 70 31.2882 70 31.0312V29.6926C70 29.5127 69.95 29.3364 69.8554 29.1833C69.7609 29.0303 69.6256 28.9066 69.4648 28.8261Z" fill="#C2E6EB"/>
<path d="M7 1H0V8H7V1Z" fill="#C2E6EB"/>
<path d="M7 24H0V32H7V24Z" fill="#C2E6EB"/>
<path d="M15 8H7V24H15V8Z" fill="#C2E6EB"/>
<mask id="mask0" mask-type="alpha" maskUnits="userSpaceOnUse" x="17" y="0" width="19" height="33">
<path d="M36 0H17V33H36V0Z" fill="#505050"/>
</mask>
<g mask="url(#mask0)">
<path fill-rule="evenodd" clip-rule="evenodd" d="M34 16C34 24.2843 27.2843 31 19 31C10.7157 31 4 24.2843 4 16C4 7.71573 10.7157 1 19 1C27.2843 1 34 7.71573 34 16ZM27 16.5C27 21.1944 23.1944 25 18.5 25C13.8056 25 10 21.1944 10 16.5C10 11.8056 13.8056 8 18.5 8C23.1944 8 27 11.8056 27 16.5Z" fill="#C2E6EB"/>
</g>
</svg>
